<svg width="100" height="98" viewBox="0 0 100 98" fill="none" xmlns="http://www.w3.org/2000/svg">
<g clip-path="url(#clip0_658_1485)">
<path d="M91 0H9C4.02944 0 0 4.02944 0 9V89C0 93.9706 4.02943 98 9 98H91C95.9706 98 100 93.9706 100 89V9C100 4.02944 95.9706 0 91 0Z" fill="#F2BA68"/>
<path d="M91.6001 98.01H8.40007C3.76514 98.01 -0.0065918 94.3088 -0.0065918 89.7647V8.19611C-0.0065918 3.65206 3.76514 -0.0457153 8.40007 -0.0457153H91.6001C96.235 -0.0457153 100.01 3.65206 100.01 8.19611V89.7647C100.01 94.3088 96.235 98.01 91.6001 98.01ZM51.4734 95.1143H91.6001C94.6091 95.1143 97.0566 92.7148 97.0566 89.7647V81.0165H81.2001C80.8083 81.0165 80.4339 80.8636 80.1566 80.5917L66.7233 67.4217H51.4734V95.1143ZM2.94007 81.0165V89.7647C2.94007 92.7148 5.39101 95.1143 8.40007 95.1143H48.5267V67.4217H33.2803L19.847 80.5917C19.5697 80.8636 19.1953 81.0165 18.8035 81.0165H2.94007ZM81.8102 78.1208H97.0566V50.4249H68.8102V65.3757L81.8102 78.1208ZM2.94007 78.1208H18.1865L31.1899 65.3757V50.4249H2.94007V78.1208ZM34.1401 64.526H65.8566V33.4314H34.1401V64.526ZM68.8102 47.536H97.0566V19.8366H81.8102L68.8102 32.5851V47.536ZM2.94007 47.536H31.1899V32.5885L18.1899 19.8366H2.94007V47.536ZM51.4734 30.5425H66.7233L80.1566 17.3726C80.4339 17.1007 80.8083 16.9477 81.2001 16.9477H97.0566V8.19611C97.0566 5.24605 94.6091 2.84317 91.6001 2.84317H51.4734V30.5425ZM33.2769 30.5425H48.5233V2.84317H8.40007C5.39101 2.84317 2.94007 5.24605 2.94007 8.19611V16.9477H18.8001C19.1918 16.9477 19.5662 17.0973 19.8435 17.3726L33.2769 30.5425Z" fill="#C88A2F"/>
</g>
<defs>
<clipPath id="clip0_658_1485">
<rect width="100" height="98" rx="2" fill="white"/>
</clipPath>
</defs>
</svg>
