<svg width="22" height="22" viewBox="0 0 22 22" fill="none" xmlns="http://www.w3.org/2000/svg">
<path fill-rule="evenodd" clip-rule="evenodd" d="M0 0H1.375V20.625H22V22H0V0ZM13.75 4.8125C13.75 4.63016 13.8224 4.4553 13.9514 4.32636C14.0803 4.19743 14.2552 4.125 14.4375 4.125H19.9375C20.1198 4.125 20.2947 4.19743 20.4236 4.32636C20.5526 4.4553 20.625 4.63016 20.625 4.8125V10.3125C20.625 10.4948 20.5526 10.6697 20.4236 10.7986C20.2947 10.9276 20.1198 11 19.9375 11C19.7552 11 19.5803 10.9276 19.4514 10.7986C19.3224 10.6697 19.25 10.4948 19.25 10.3125V6.7375L14.2821 12.8109C14.2213 12.8851 14.1456 12.9458 14.0599 12.989C13.9743 13.0322 13.8805 13.057 13.7846 13.0618C13.6888 13.0666 13.593 13.0513 13.5035 13.0168C13.4139 12.9824 13.3325 12.9295 13.2646 12.8618L9.7075 9.30463L4.6805 16.2167C4.57053 16.3566 4.41064 16.4483 4.23443 16.4728C4.05821 16.4972 3.8794 16.4523 3.73556 16.3476C3.59172 16.243 3.49406 16.0866 3.46309 15.9114C3.43212 15.7363 3.47026 15.5559 3.5695 15.4083L9.0695 7.84575C9.12788 7.76533 9.203 7.69853 9.28968 7.64993C9.37636 7.60134 9.47255 7.57212 9.57161 7.56427C9.67067 7.55643 9.77026 7.57016 9.86351 7.60451C9.95675 7.63886 10.0414 7.69302 10.1118 7.76325L13.6991 11.352L18.4869 5.5H14.4375C14.2552 5.5 14.0803 5.42757 13.9514 5.29864C13.8224 5.1697 13.75 4.99484 13.75 4.8125Z" fill="#FFD19E"/>
</svg>
