<svg width="23" height="22" viewBox="0 0 23 22" fill="none" xmlns="http://www.w3.org/2000/svg">
<path d="M1 0V20.5H22.5" stroke="#FDBA6F" stroke-width="2"/>
<path d="M3.71913 15.3337C3.37412 15.7649 3.44404 16.3942 3.8753 16.7392C4.30657 17.0843 4.93586 17.0143 5.28087 16.5831L3.71913 15.3337ZM10.5 8.45837L11.2071 7.75127C11.006 7.55014 10.7287 7.44417 10.4447 7.4599C10.1607 7.47563 9.89682 7.61157 9.71913 7.83368L10.5 8.45837ZM14.5 12.4584L13.7929 13.1655C13.9931 13.3657 14.2688 13.4716 14.5515 13.457C14.8343 13.4425 15.0976 13.3087 15.2761 13.089L14.5 12.4584ZM21.5 3.95837H22.5C22.5 3.40609 22.0523 2.95837 21.5 2.95837V3.95837ZM14.5 2.95837C13.9477 2.95837 13.5 3.40609 13.5 3.95837C13.5 4.51066 13.9477 4.95837 14.5 4.95837V2.95837ZM20.5 10.9584C20.5 11.5107 20.9477 11.9584 21.5 11.9584C22.0523 11.9584 22.5 11.5107 22.5 10.9584H20.5ZM5.28087 16.5831L11.2809 9.08307L9.71913 7.83368L3.71913 15.3337L5.28087 16.5831ZM9.79289 9.16548L13.7929 13.1655L15.2071 11.7513L11.2071 7.75127L9.79289 9.16548ZM15.2761 13.089L21.7761 5.08897L20.2239 3.82778L13.7239 11.8278L15.2761 13.089ZM21.5 2.95837H14.5V4.95837H21.5V2.95837ZM20.5 3.95837V10.9584H22.5V3.95837H20.5Z" fill="#FDBA6F"/>
</svg>
