<svg width="660" height="202" viewBox="0 0 660 202" fill="none" xmlns="http://www.w3.org/2000/svg">
<g clip-path="url(#clip0_660_1495)">
<path d="M233.2 199.73L266.559 3.97002H319.917L286.533 199.73H233.2ZM479.31 8.19002C468.741 4.22402 452.175 -0.0319824 431.489 -0.0319824C378.763 -0.0319824 341.626 26.519 341.308 64.572C341.011 92.701 367.823 108.394 388.062 117.757C408.833 127.355 415.814 133.473 415.714 142.04C415.581 155.163 399.128 161.155 383.79 161.155C362.435 161.155 351.089 158.188 333.565 150.882L326.687 147.771L319.2 191.593C331.663 197.06 354.708 201.792 378.638 202.038C434.728 202.038 471.14 175.79 471.554 135.153C471.753 112.883 457.538 95.938 426.753 81.965C408.103 72.909 396.681 66.866 396.802 57.696C396.802 49.559 406.47 40.858 427.362 40.858C444.808 40.587 457.45 44.392 467.298 48.358L472.079 50.617L479.31 8.19002ZM616.62 3.96701H575.39C562.618 3.96701 553.058 7.45302 547.45 20.201L468.205 199.601H524.236C524.236 199.601 533.395 175.48 535.467 170.183C541.59 170.183 596.022 170.267 603.803 170.267C605.399 177.121 610.295 199.601 610.295 199.601H659.807L616.62 3.96101V3.96701ZM551.203 130.377C555.617 119.098 572.463 75.653 572.463 75.653C572.149 76.174 576.844 64.319 579.537 56.969L583.143 73.847C583.143 73.847 593.36 120.576 595.496 130.374H551.203V130.377ZM187.903 3.96701L135.664 137.467L130.099 110.338C120.373 79.064 90.0739 45.181 56.2009 28.218L103.968 199.418L160.423 199.355L244.427 3.96501L187.903 3.96402" fill="#0E4595"/>
<path d="M86.92 3.96002H0.879025L0.197021 8.03302C67.136 24.237 111.427 63.396 129.817 110.453L111.108 20.493C107.879 8.09701 98.511 4.39701 86.922 3.96501" fill="#F2AE14"/>
</g>
<defs>
<clipPath id="clip0_660_1495">
<rect width="660" height="202" fill="white"/>
</clipPath>
</defs>
</svg>
